<?xml version="1.0" standalone="no"?>
<!DOCTYPE svg PUBLIC "-//W3C//DTD SVG 20010904//EN"
 "http://www.w3.org/TR/2001/REC-SVG-20010904/DTD/svg10.dtd">
<svg version="1.0" xmlns="http://www.w3.org/2000/svg"
 width="512.000000pt" height="512.000000pt" viewBox="0 0 512.000000 512.000000"
 preserveAspectRatio="xMidYMid meet">

<g transform="translate(0.000000,512.000000) scale(0.100000,-0.100000)"
fill="#000000" stroke="none">
<path d="M3972 4859 c-78 -39 -119 -133 -92 -213 7 -22 53 -83 112 -149 204
-227 329 -406 451 -644 212 -417 309 -820 309 -1288 0 -462 -93 -863 -293
-1264 -128 -258 -256 -445 -458 -669 -65 -72 -114 -136 -121 -158 -27 -80 14
-175 92 -213 94 -45 158 -21 278 105 418 440 716 1035 819 1634 40 230 45 303
45 565 0 277 -11 392 -60 635 -117 581 -399 1125 -807 1556 -116 124 -183 148
-275 103z"/>
<path d="M2169 4427 c-35 -18 -376 -265 -757 -550 l-692 -517 -360 0 -360 0 0
-800 0 -800 360 0 360 0 698 -517 c383 -285 721 -530 751 -546 64 -32 94 -34
121 -7 20 20 20 33 20 1879 l0 1860 -22 15 c-32 22 -47 20 -119 -17z"/>
<path d="M3375 4276 c-63 -28 -105 -94 -105 -166 0 -59 15 -87 88 -168 160
-177 250 -309 342 -497 144 -295 204 -557 203 -890 -1 -318 -60 -578 -194
-863 -88 -187 -183 -327 -346 -508 -79 -89 -93 -115 -93 -175 0 -101 78 -179
181 -179 62 0 98 21 174 101 233 246 417 554 525 880 274 828 71 1750 -523
2376 -37 39 -83 78 -101 87 -41 19 -110 20 -151 2z"/>
<path d="M2885 3706 c-39 -17 -93 -78 -101 -114 -3 -15 -8 -33 -10 -40 -11
-36 20 -104 78 -169 33 -38 79 -95 103 -128 322 -451 286 -1079 -85 -1489 -73
-81 -92 -117 -93 -175 -1 -134 142 -223 261 -162 56 29 199 197 275 325 282
474 301 1043 51 1526 -95 183 -264 394 -341 426 -40 17 -99 17 -138 0z"/>
</g>
</svg>
